<?xml version="1.0" encoding="UTF-8"?>
<!DOCTYPE svg PUBLIC "-//W3C//DTD SVG 1.1//EN" "http://www.w3.org/Graphics/SVG/1.1/DTD/svg11.dtd">
<svg xmlns="http://www.w3.org/2000/svg" version="1.1" width="632px" height="395px" style="shape-rendering:geometricPrecision; text-rendering:geometricPrecision; image-rendering:optimizeQuality; fill-rule:evenodd; clip-rule:evenodd" xmlns:xlink="http://www.w3.org/1999/xlink">
<g><path style="opacity:0.004" fill="#000000" d="M 363.5,2.5 C 364.833,3.16667 364.833,3.16667 363.5,2.5 Z"/></g>
<g><path style="opacity:0.004" fill="#000000" d="M 43.5,6.5 C 44.8333,7.16667 44.8333,7.16667 43.5,6.5 Z"/></g>
<g><path style="opacity:0.004" fill="#000000" d="M 385.5,12.5 C 386.833,13.1667 386.833,13.1667 385.5,12.5 Z"/></g>
<g><path style="opacity:0.004" fill="#000000" d="M 326.5,18.5 C 327.833,19.1667 327.833,19.1667 326.5,18.5 Z"/></g>
<g><path style="opacity:0.004" fill="#000000" d="M 426.5,21.5 C 427.833,22.1667 427.833,22.1667 426.5,21.5 Z"/></g>
<g><path style="opacity:0.004" fill="#000000" d="M 556.5,22.5 C 557.833,23.1667 557.833,23.1667 556.5,22.5 Z"/></g>
<g><path style="opacity:0.004" fill="#000000" d="M 362.5,34.5 C 363.833,35.1667 363.833,35.1667 362.5,34.5 Z"/></g>
<g><path style="opacity:0.004" fill="#000000" d="M 21.5,38.5 C 22.8333,39.1667 22.8333,39.1667 21.5,38.5 Z"/></g>
<g><path style="opacity:0.004" fill="#000000" d="M 486.5,39.5 C 487.833,40.1667 487.833,40.1667 486.5,39.5 Z"/></g>
<g><path style="opacity:0.004" fill="#000000" d="M 533.5,45.5 C 534.833,46.1667 534.833,46.1667 533.5,45.5 Z"/></g>
<g><path style="opacity:0.004" fill="#000000" d="M 32.5,46.5 C 33.8333,47.1667 33.8333,47.1667 32.5,46.5 Z"/></g>
<g><path style="opacity:0.004" fill="#000000" d="M 208.5,52.5 C 209.833,53.1667 209.833,53.1667 208.5,52.5 Z"/></g>
<g><path style="opacity:0.004" fill="#000000" d="M 396.5,52.5 C 397.833,53.1667 397.833,53.1667 396.5,52.5 Z"/></g>
<g><path style="opacity:0.004" fill="#000000" d="M 131.5,54.5 C 132.833,55.1667 132.833,55.1667 131.5,54.5 Z"/></g>
<g><path style="opacity:0.004" fill="#000000" d="M 156.5,60.5 C 157.833,61.1667 157.833,61.1667 156.5,60.5 Z"/></g>
<g><path style="opacity:0.004" fill="#000000" d="M 339.5,60.5 C 340.833,61.1667 340.833,61.1667 339.5,60.5 Z"/></g>
<g><path style="opacity:0.004" fill="#000000" d="M 203.5,61.5 C 204.833,62.1667 204.833,62.1667 203.5,61.5 Z"/></g>
<g><path style="opacity:0.004" fill="#000000" d="M 410.5,63.5 C 411.833,64.1667 411.833,64.1667 410.5,63.5 Z"/></g>
<g><path style="opacity:0.004" fill="#000000" d="M 40.5,65.5 C 41.8333,66.1667 41.8333,66.1667 40.5,65.5 Z"/></g>
<g><path style="opacity:0.004" fill="#000000" d="M 427.5,67.5 C 428.833,68.1667 428.833,68.1667 427.5,67.5 Z"/></g>
<g><path style="opacity:0.004" fill="#000000" d="M 226.5,68.5 C 227.833,69.1667 227.833,69.1667 226.5,68.5 Z"/></g>
<g><path style="opacity:0.004" fill="#000000" d="M 90.5,70.5 C 91.8333,71.1667 91.8333,71.1667 90.5,70.5 Z"/></g>
<g><path style="opacity:0.004" fill="#000000" d="M 267.5,72.5 C 268.833,73.1667 268.833,73.1667 267.5,72.5 Z"/></g>
<g><path style="opacity:0.004" fill="#000000" d="M 123.5,74.5 C 124.833,75.1667 124.833,75.1667 123.5,74.5 Z"/></g>
<g><path style="opacity:0.004" fill="#000000" d="M 321.5,74.5 C 322.833,75.1667 322.833,75.1667 321.5,74.5 Z"/></g>
<g><path style="opacity:0.004" fill="#000000" d="M 85.5,76.5 C 86.8333,77.1667 86.8333,77.1667 85.5,76.5 Z"/></g>
<g><path style="opacity:0.004" fill="#000000" d="M 102.5,76.5 C 103.833,77.1667 103.833,77.1667 102.5,76.5 Z"/></g>
<g><path style="opacity:0.004" fill="#0000ff" d="M 221.5,84.5 C 222.833,85.1667 222.833,85.1667 221.5,84.5 Z"/></g>
<g><path style="opacity:0.004" fill="#000000" d="M 32.5,86.5 C 33.8333,87.1667 33.8333,87.1667 32.5,86.5 Z"/></g>
<g><path style="opacity:0.004" fill="#0000ff" d="M 352.5,86.5 C 353.833,87.1667 353.833,87.1667 352.5,86.5 Z"/></g>
<g><path style="opacity:0.004" fill="#000000" d="M 186.5,90.5 C 187.833,91.1667 187.833,91.1667 186.5,90.5 Z"/></g>
<g><path style="opacity:0.004" fill="#000000" d="M 425.5,101.5 C 426.833,102.167 426.833,102.167 425.5,101.5 Z"/></g>
<g><path style="opacity:0.004" fill="#000000" d="M 609.5,112.5 C 610.833,113.167 610.833,113.167 609.5,112.5 Z"/></g>
<g><path style="opacity:0.004" fill="#000000" d="M 559.5,127.5 C 560.833,128.167 560.833,128.167 559.5,127.5 Z"/></g>
<g><path style="opacity:1" fill="#0f4081" d="M 371.5,129.5 C 368.753,129.187 366.086,129.52 363.5,130.5C 365.975,130.964 367.975,131.964 369.5,133.5C 364.137,132.374 362.637,134.374 365,139.5C 365.77,140.598 366.603,140.598 367.5,139.5C 367.5,139.833 367.5,140.167 367.5,140.5C 367.5,140.833 367.5,141.167 367.5,141.5C 366.178,141.67 365.011,141.337 364,140.5C 363.061,137.879 362.228,135.212 361.5,132.5C 360.914,132.709 360.414,133.043 360,133.5C 359.831,136.97 359.665,140.303 359.5,143.5C 359.167,144.5 358.5,145.167 357.5,145.5C 358.208,141.215 358.708,136.882 359,132.5C 362.507,128.505 366.674,127.505 371.5,129.5 Z"/></g>
<g><path style="opacity:0.005" fill="#000000" d="M 369.5,134.5 C 370.404,135.209 370.737,136.209 370.5,137.5C 369.833,137.5 369.5,137.833 369.5,138.5C 368.833,138.5 368.5,138.833 368.5,139.5C 368.167,139.5 367.833,139.5 367.5,139.5C 367.077,137.219 367.744,135.552 369.5,134.5 Z"/></g>
<g><path style="opacity:0.004" fill="#000000" d="M 453.5,137.5 C 454.833,138.167 454.833,138.167 453.5,137.5 Z"/></g>
<g><path style="opacity:0.929" fill="#0d3977" d="M 310.5,138.5 C 306.992,141.283 305.658,144.949 306.5,149.5C 305.711,149.217 305.044,148.717 304.5,148C 304.835,146.133 305.335,143.966 306,141.5C 307.129,139.859 308.629,138.859 310.5,138.5 Z"/></g>
<g><path style="opacity:1" fill="#1061be" d="M 371.5,129.5 C 375.252,131.794 376.419,135.128 375,139.5C 374.623,140.942 373.79,141.942 372.5,142.5C 371.849,141.909 371.182,141.243 370.5,140.5C 369.583,141.127 368.583,141.461 367.5,141.5C 367.5,141.167 367.5,140.833 367.5,140.5C 368.167,140.5 368.5,140.167 368.5,139.5C 369.167,139.5 369.5,139.167 369.5,138.5C 370.167,138.5 370.5,138.167 370.5,137.5C 370.737,136.209 370.404,135.209 369.5,134.5C 369.5,134.167 369.5,133.833 369.5,133.5C 367.975,131.964 365.975,130.964 363.5,130.5C 366.086,129.52 368.753,129.187 371.5,129.5 Z"/></g>
<g><path style="opacity:1" fill="#1273e0" d="M 310.5,138.5 C 312.604,138.201 314.604,138.534 316.5,139.5C 314.345,140.001 312.678,141.001 311.5,142.5C 311.5,142.833 311.5,143.167 311.5,143.5C 309.824,144.183 309.157,145.517 309.5,147.5C 309.5,149.5 308.5,150.5 306.5,150.5C 306.5,150.167 306.5,149.833 306.5,149.5C 305.658,144.949 306.992,141.283 310.5,138.5 Z"/></g>
<g><path style="opacity:1" fill="#1075df" d="M 367.5,141.5 C 368.583,141.461 369.583,141.127 370.5,140.5C 371.182,141.243 371.849,141.909 372.5,142.5C 372.5,143.167 372.167,143.5 371.5,143.5C 367.5,143.5 363.5,143.5 359.5,143.5C 359.665,140.303 359.831,136.97 360,133.5C 360.414,133.043 360.914,132.709 361.5,132.5C 362.228,135.212 363.061,137.879 364,140.5C 365.011,141.337 366.178,141.67 367.5,141.5 Z"/></g>
<g><path style="opacity:1" fill="#10498f" d="M 310.5,138.5 C 319.327,136.331 322.994,139.664 321.5,148.5C 318.367,137.724 317.367,138.057 318.5,149.5C 317.5,149.5 316.5,149.5 315.5,149.5C 317.405,145.251 316.071,142.918 311.5,142.5C 312.678,141.001 314.345,140.001 316.5,139.5C 314.604,138.534 312.604,138.201 310.5,138.5 Z"/></g>
<g><path style="opacity:0.169" fill="#08152b" d="M 311.5,143.5 C 310.438,145.099 310.438,146.766 311.5,148.5C 310.833,148.167 310.167,147.833 309.5,147.5C 309.157,145.517 309.824,144.183 311.5,143.5 Z"/></g>
<g><path style="opacity:1" fill="#0f4c97" d="M 359.5,143.5 C 363.5,143.5 367.5,143.5 371.5,143.5C 369.226,145.358 366.726,145.691 364,144.5C 361.636,147.69 359.136,150.69 356.5,153.5C 356.66,151.801 356.494,150.134 356,148.5C 354.583,150.398 353.083,152.064 351.5,153.5C 352.353,149.98 354.353,147.313 357.5,145.5C 358.5,145.167 359.167,144.5 359.5,143.5 Z"/></g>
<g><path style="opacity:0.004" fill="#000000" d="M 98.5,149.5 C 99.8333,150.167 99.8333,150.167 98.5,149.5 Z"/></g>
<g><path style="opacity:0.004" fill="#000000" d="M 247.5,149.5 C 248.833,150.167 248.833,150.167 247.5,149.5 Z"/></g>
<g><path style="opacity:1" fill="#115db9" d="M 321.5,148.5 C 320.92,150.749 319.587,152.415 317.5,153.5C 317.5,152.5 317.5,151.5 317.5,150.5C 314.753,150.187 312.086,150.52 309.5,151.5C 309.863,152.183 310.196,152.85 310.5,153.5C 308.596,153.262 307.262,152.262 306.5,150.5C 308.5,150.5 309.5,149.5 309.5,147.5C 310.167,147.833 310.833,148.167 311.5,148.5C 312.833,148.833 314.167,149.167 315.5,149.5C 316.5,149.5 317.5,149.5 318.5,149.5C 317.367,138.057 318.367,137.724 321.5,148.5 Z"/></g>
<g><path style="opacity:0.004" fill="#000000" d="M 205.5,153.5 C 206.833,154.167 206.833,154.167 205.5,153.5 Z"/></g>
<g><path style="opacity:1" fill="#0f5eb6" d="M 356.5,153.5 C 352.635,159.24 348.302,164.573 343.5,169.5C 342.503,169.53 341.836,169.03 341.5,168C 342.414,166.594 343.08,165.094 343.5,163.5C 345.697,159.762 348.364,156.429 351.5,153.5C 353.083,152.064 354.583,150.398 356,148.5C 356.494,150.134 356.66,151.801 356.5,153.5 Z"/></g>
<g><path style="opacity:0.004" fill="#000000" d="M 223.5,160.5 C 224.833,161.167 224.833,161.167 223.5,160.5 Z"/></g>
<g><path style="opacity:1" fill="#1074e0" d="M 317.5,153.5 C 317.5,154.167 317.5,154.833 317.5,155.5C 318.002,160.838 318.169,166.172 318,171.5C 317.066,170.142 316.232,168.808 315.5,167.5C 315.841,163.84 315.175,160.507 313.5,157.5C 313.229,155.57 312.229,154.236 310.5,153.5C 310.196,152.85 309.863,152.183 309.5,151.5C 312.086,150.52 314.753,150.187 317.5,150.5C 317.5,151.5 317.5,152.5 317.5,153.5 Z"/></g>
<g><path style="opacity:0.004" fill="#000000" d="M 140.5,163.5 C 141.833,164.167 141.833,164.167 140.5,163.5 Z"/></g>
<g><path style="opacity:0.565" fill="#083065" d="M 313.5,157.5 C 315.175,160.507 315.841,163.84 315.5,167.5C 314.215,164.411 313.549,161.078 313.5,157.5 Z"/></g>
<g><path style="opacity:0.004" fill="#000000" d="M 230.5,164.5 C 231.833,165.167 231.833,165.167 230.5,164.5 Z"/></g>
<g><path style="opacity:0.416" fill="#0e1d3a" d="M 319.5,167.5 C 321.639,170.381 321.639,173.214 319.5,176C 320.416,176.278 321.082,176.778 321.5,177.5C 320.5,177.5 319.5,177.5 318.5,177.5C 317.833,176.5 317.167,175.5 316.5,174.5C 317.5,174.5 318.5,174.5 319.5,174.5C 319.5,172.167 319.5,169.833 319.5,167.5 Z"/></g>
<g><path style="opacity:1" fill="#154f98" d="M 317.5,155.5 C 318.76,158.838 319.76,162.338 320.5,166C 319.944,166.383 319.611,166.883 319.5,167.5C 319.5,169.833 319.5,172.167 319.5,174.5C 318.5,174.5 317.5,174.5 316.5,174.5C 315.776,172.782 315.109,170.948 314.5,169C 315.056,168.617 315.389,168.117 315.5,167.5C 316.232,168.808 317.066,170.142 318,171.5C 318.169,166.172 318.002,160.838 317.5,155.5 Z"/></g>
<g><path style="opacity:0.004" fill="#0000ff" d="M 438.5,171.5 C 439.833,172.167 439.833,172.167 438.5,171.5 Z"/></g>
<g><path style="opacity:1" fill="#115baf" d="M 343.5,163.5 C 343.08,165.094 342.414,166.594 341.5,168C 341.836,169.03 342.503,169.53 343.5,169.5C 341.167,172.833 338.833,176.167 336.5,179.5C 335.5,179.5 334.5,179.5 333.5,179.5C 333.5,178.167 333.5,176.833 333.5,175.5C 336.486,171.183 339.82,167.183 343.5,163.5 Z"/></g>
<g><path style="opacity:0.004" fill="#000000" d="M 365.5,173.5 C 366.833,174.167 366.833,174.167 365.5,173.5 Z"/></g>
<g><path style="opacity:0.004" fill="#000000" d="M 91.5,174.5 C 92.8333,175.167 92.8333,175.167 91.5,174.5 Z"/></g>
<g><path style="opacity:1" fill="#0d4b92" d="M 266.5,173.5 C 264.143,173.337 261.81,173.503 259.5,174C 261.596,174.737 263.263,175.903 264.5,177.5C 262.142,177.253 260.142,177.919 258.5,179.5C 258.762,178.022 258.429,176.689 257.5,175.5C 257.167,175.833 256.833,176.167 256.5,176.5C 255.593,179.421 255.26,182.421 255.5,185.5C 252.658,175.345 256.325,171.345 266.5,173.5 Z"/></g>
<g><path style="opacity:0.063" fill="#0b2a62" d="M 269.5,176.5 C 270.718,177.731 272.051,178.898 273.5,180C 278.076,180.272 282.409,181.105 286.5,182.5C 285.167,182.5 283.833,182.5 282.5,182.5C 278.858,181.92 275.191,181.42 271.5,181C 270.418,179.67 269.751,178.17 269.5,176.5 Z"/></g>
<g><path style="opacity:1" fill="#0d4d96" d="M 330.5,179.5 C 331.167,180.833 332.167,181.833 333.5,182.5C 336.09,187.471 336.09,192.471 333.5,197.5C 333.167,197.5 332.833,197.5 332.5,197.5C 333.097,193.168 333.263,188.835 333,184.5C 331.6,183.252 330.1,182.252 328.5,181.5C 326.206,179.609 323.372,178.609 320,178.5C 317.114,179.546 314.614,181.213 312.5,183.5C 312.167,183.5 311.833,183.5 311.5,183.5C 313.239,180.757 315.573,178.757 318.5,177.5C 319.5,177.5 320.5,177.5 321.5,177.5C 324.685,176.551 327.685,177.218 330.5,179.5 Z"/></g>
<g><path style="opacity:0.005" fill="#0b0f1b" d="M 333.5,175.5 C 333.5,176.833 333.5,178.167 333.5,179.5C 334.5,179.5 335.5,179.5 336.5,179.5C 335.1,180.1 334.1,181.1 333.5,182.5C 332.167,181.833 331.167,180.833 330.5,179.5C 332.379,179.607 332.712,179.107 331.5,178C 332.066,177.005 332.733,176.172 333.5,175.5 Z"/></g>
<g><path style="opacity:1" fill="#0679f7" d="M 328.5,181.5 C 326.776,182.26 325.11,182.593 323.5,182.5C 325.104,184.179 325.771,186.179 325.5,188.5C 325.167,189.5 324.5,190.167 323.5,190.5C 319.547,190.346 315.881,189.346 312.5,187.5C 312.5,186.167 312.5,184.833 312.5,183.5C 314.614,181.213 317.114,179.546 320,178.5C 323.372,178.609 326.206,179.609 328.5,181.5 Z"/></g>
<g><path style="opacity:0.004" fill="#000000" d="M 384.5,181.5 C 385.833,182.167 385.833,182.167 384.5,181.5 Z"/></g>
<g><path style="opacity:1" fill="#1175e0" d="M 266.5,173.5 C 268.19,173.856 269.19,174.856 269.5,176.5C 269.751,178.17 270.418,179.67 271.5,181C 275.191,181.42 278.858,181.92 282.5,182.5C 282.611,183.117 282.944,183.617 283.5,184C 282.207,184.49 280.873,184.657 279.5,184.5C 275.566,183.64 271.566,183.307 267.5,183.5C 267.66,181.801 267.494,180.134 267,178.5C 266.329,177.748 265.496,177.414 264.5,177.5C 263.263,175.903 261.596,174.737 259.5,174C 261.81,173.503 264.143,173.337 266.5,173.5 Z"/></g>
<g><path style="opacity:1" fill="#1169cb" d="M 282.5,182.5 C 283.833,182.5 285.167,182.5 286.5,182.5C 289.713,182.19 292.713,182.523 295.5,183.5C 296.842,184.793 298.509,185.626 300.5,186C 299.333,186.167 298.167,186.333 297,186.5C 291.529,185.682 286.029,185.348 280.5,185.5C 280.167,185.5 279.833,185.5 279.5,185.5C 279.5,185.167 279.5,184.833 279.5,184.5C 280.873,184.657 282.207,184.49 283.5,184C 282.944,183.617 282.611,183.117 282.5,182.5 Z"/></g>
<g><path style="opacity:1" fill="#1472d9" d="M 258.5,179.5 C 257.911,181.373 258.578,183.04 260.5,184.5C 262.369,185.165 264.369,185.831 266.5,186.5C 262.614,187.887 258.947,187.554 255.5,185.5C 255.26,182.421 255.593,179.421 256.5,176.5C 256.833,176.167 257.167,175.833 257.5,175.5C 258.429,176.689 258.762,178.022 258.5,179.5 Z"/></g>
<g><path style="opacity:1" fill="#104d96" d="M 264.5,177.5 C 265.496,177.414 266.329,177.748 267,178.5C 267.494,180.134 267.66,181.801 267.5,183.5C 271.566,183.307 275.566,183.64 279.5,184.5C 279.5,184.833 279.5,185.167 279.5,185.5C 274.784,183.342 270.784,184.176 267.5,188C 262.713,190.483 258.713,189.65 255.5,185.5C 258.947,187.554 262.614,187.887 266.5,186.5C 264.369,185.831 262.369,185.165 260.5,184.5C 262.071,183.803 263.571,183.47 265,183.5C 265.309,182.234 265.809,181.067 266.5,180C 265.619,179.292 264.953,178.458 264.5,177.5 Z"/></g>
<g><path style="opacity:1" fill="#135eb2" d="M 295.5,183.5 C 298.237,183.401 300.904,183.735 303.5,184.5C 304.568,185.434 305.901,185.768 307.5,185.5C 307.5,186.5 307.5,187.5 307.5,188.5C 306.167,188.5 304.833,188.5 303.5,188.5C 295.586,188.375 287.919,187.375 280.5,185.5C 286.029,185.348 291.529,185.682 297,186.5C 298.167,186.333 299.333,186.167 300.5,186C 298.509,185.626 296.842,184.793 295.5,183.5 Z"/></g>
<g><path style="opacity:0.263" fill="#1f1e40" d="M 311.5,183.5 C 310.246,187.818 310.246,192.152 311.5,196.5C 309.837,194.562 309.171,192.228 309.5,189.5C 307.265,189.795 305.265,189.461 303.5,188.5C 304.833,188.5 306.167,188.5 307.5,188.5C 307.5,187.5 307.5,186.5 307.5,185.5C 305.901,185.768 304.568,185.434 303.5,184.5C 303.435,184.062 303.601,183.728 304,183.5C 306.773,185.375 309.273,185.375 311.5,183.5 Z"/></g>
<g><path style="opacity:0.004" fill="#000000" d="M 568.5,187.5 C 569.833,188.167 569.833,188.167 568.5,187.5 Z"/></g>
<g><path style="opacity:1" fill="#0778f2" d="M 328.5,181.5 C 330.1,182.252 331.6,183.252 333,184.5C 333.263,188.835 333.097,193.168 332.5,197.5C 331.167,198.167 330.167,199.167 329.5,200.5C 329.167,200.5 328.833,200.5 328.5,200.5C 328.104,197.956 328.771,195.789 330.5,194C 329.125,192.738 327.792,192.238 326.5,192.5C 327.122,191.373 327.955,190.373 329,189.5C 329.74,188.251 329.573,187.251 328.5,186.5C 327.5,187.167 326.5,187.833 325.5,188.5C 325.771,186.179 325.104,184.179 323.5,182.5C 325.11,182.593 326.776,182.26 328.5,181.5 Z"/></g>
<g><path style="opacity:0.004" fill="#000000" d="M 6.5,194.5 C 7.83333,195.167 7.83333,195.167 6.5,194.5 Z"/></g>
<g><path style="opacity:1" fill="#0d6bd6" d="M 311.5,183.5 C 311.833,183.5 312.167,183.5 312.5,183.5C 312.5,184.833 312.5,186.167 312.5,187.5C 315.881,189.346 319.547,190.346 323.5,190.5C 322.833,191.5 322.167,192.5 321.5,193.5C 324.833,192.167 327.167,189.833 328.5,186.5C 329.573,187.251 329.74,188.251 329,189.5C 327.955,190.373 327.122,191.373 326.5,192.5C 325.188,193.145 324.188,194.145 323.5,195.5C 320.843,196.259 318.177,196.926 315.5,197.5C 314.702,197.957 314.369,198.624 314.5,199.5C 312.5,199.5 311.5,198.5 311.5,196.5C 310.246,192.152 310.246,187.818 311.5,183.5 Z M 328.5,186.5 C 327.167,189.833 324.833,192.167 321.5,193.5C 322.167,192.5 322.833,191.5 323.5,190.5C 324.5,190.167 325.167,189.5 325.5,188.5C 326.5,187.833 327.5,187.167 328.5,186.5 Z"/></g>
<g><path style="opacity:1" fill="#047afa" d="M 326.5,192.5 C 327.792,192.238 329.125,192.738 330.5,194C 328.771,195.789 328.104,197.956 328.5,200.5C 323.77,200.717 319.103,200.383 314.5,199.5C 314.369,198.624 314.702,197.957 315.5,197.5C 318.177,196.926 320.843,196.259 323.5,195.5C 324.188,194.145 325.188,193.145 326.5,192.5 Z"/></g>
<g><path style="opacity:0.004" fill="#000000" d="M 113.5,197.5 C 114.833,198.167 114.833,198.167 113.5,197.5 Z"/></g>
<g><path style="opacity:0.004" fill="#000000" d="M 124.5,198.5 C 125.833,199.167 125.833,199.167 124.5,198.5 Z"/></g>
<g><path style="opacity:1" fill="#11417b" d="M 307.5,203.5 C 307.5,202.5 307.5,201.5 307.5,200.5C 305.315,200.704 303.315,201.37 301.5,202.5C 303.059,200.376 305.059,198.709 307.5,197.5C 311.473,199.54 311.473,201.54 307.5,203.5 Z"/></g>
<g><path style="opacity:1" fill="#0e4380" d="M 332.5,197.5 C 332.369,198.376 332.702,199.043 333.5,199.5C 334.463,199.03 334.463,198.363 333.5,197.5C 336.918,197.924 339.918,199.258 342.5,201.5C 340.488,200.986 338.488,200.82 336.5,201C 337.252,201.671 337.586,202.504 337.5,203.5C 335.021,202.026 332.354,201.026 329.5,200.5C 330.167,199.167 331.167,198.167 332.5,197.5 Z M 332.5,197.5 C 332.833,197.5 333.167,197.5 333.5,197.5C 334.463,198.363 334.463,199.03 333.5,199.5C 332.702,199.043 332.369,198.376 332.5,197.5 Z"/></g>
<g><path style="opacity:1" fill="#0e509d" d="M 314.5,199.5 C 319.103,200.383 323.77,200.717 328.5,200.5C 328.833,200.5 329.167,200.5 329.5,200.5C 324.143,204.78 319.143,204.446 314.5,199.5 Z"/></g>
<g><path style="opacity:1" fill="#106bd4" d="M 342.5,201.5 C 344.368,202.263 346.035,203.263 347.5,204.5C 347.5,205.167 347.833,205.5 348.5,205.5C 350.202,207.8 350.868,210.467 350.5,213.5C 350.44,214.043 350.107,214.376 349.5,214.5C 348.526,212.257 348.192,209.924 348.5,207.5C 347.167,207.5 345.833,207.5 344.5,207.5C 341.669,206.921 339.336,205.588 337.5,203.5C 337.586,202.504 337.252,201.671 336.5,201C 338.488,200.82 340.488,200.986 342.5,201.5 Z"/></g>
<g><path style="opacity:1" fill="#0f60be" d="M 307.5,203.5 C 303.442,206.89 299.109,209.89 294.5,212.5C 292.801,212.66 291.134,212.494 289.5,212C 290.056,211.617 290.389,211.117 290.5,210.5C 293.627,207.102 297.293,204.435 301.5,202.5C 303.315,201.37 305.315,200.704 307.5,200.5C 307.5,201.5 307.5,202.5 307.5,203.5 Z"/></g>
<g><path style="opacity:0.086" fill="#072047" d="M 360.5,204.5 C 358.874,204.062 357.207,203.728 355.5,203.5C 353.159,204.182 350.826,204.849 348.5,205.5C 347.833,205.5 347.5,205.167 347.5,204.5C 349.812,203.756 352.479,203.09 355.5,202.5C 356.833,202.667 358.167,202.833 359.5,203C 360.056,203.383 360.389,203.883 360.5,204.5 Z"/></g>
<g><path style="opacity:1" fill="#0c5fbc" d="M 360.5,204.5 C 364.201,207.853 364.868,211.52 362.5,215.5C 362.852,212.927 362.352,210.594 361,208.5C 360.79,210.058 360.29,211.391 359.5,212.5C 359.737,211.209 359.404,210.209 358.5,209.5C 355.603,206.637 353.269,207.137 351.5,211C 351.743,211.902 352.077,212.735 352.5,213.5C 352.5,213.833 352.5,214.167 352.5,214.5C 351.833,214.167 351.167,213.833 350.5,213.5C 350.868,210.467 350.202,207.8 348.5,205.5C 350.826,204.849 353.159,204.182 355.5,203.5C 357.207,203.728 358.874,204.062 360.5,204.5 Z M 358.5,209.5 C 356.885,211.374 354.885,212.708 352.5,213.5C 352.077,212.735 351.743,211.902 351.5,211C 353.269,207.137 355.603,206.637 358.5,209.5 Z"/></g>
<g><path style="opacity:0.114" fill="#0b1939" d="M 317.5,205.5 C 319.515,204.147 321.182,204.647 322.5,207C 321.915,208.302 321.249,209.469 320.5,210.5C 320.5,208.833 320.5,207.167 320.5,205.5C 319.5,205.5 318.5,205.5 317.5,205.5 Z"/></g>
<g><path style="opacity:1" fill="#1374da" d="M 317.5,205.5 C 318.5,205.5 319.5,205.5 320.5,205.5C 320.5,207.167 320.5,208.833 320.5,210.5C 320.5,211.167 320.5,211.833 320.5,212.5C 319.732,214.715 319.065,217.048 318.5,219.5C 317.71,220.609 317.21,221.942 317,223.5C 316.359,217.472 316.526,211.472 317.5,205.5 Z"/></g>
<g><path style="opacity:0.004" fill="#000000" d="M 101.5,211.5 C 102.833,212.167 102.833,212.167 101.5,211.5 Z"/></g>
<g><path style="opacity:0.004" fill="#000000" d="M 498.5,215.5 C 499.833,216.167 499.833,216.167 498.5,215.5 Z"/></g>
<g><path style="opacity:0.004" fill="#000000" d="M 179.5,216.5 C 180.833,217.167 180.833,217.167 179.5,216.5 Z"/></g>
<g><path style="opacity:1" fill="#0d59b0" d="M 290.5,210.5 C 290.389,211.117 290.056,211.617 289.5,212C 291.134,212.494 292.801,212.66 294.5,212.5C 290.447,215.883 286.114,218.883 281.5,221.5C 279.585,221.784 277.919,221.451 276.5,220.5C 280.806,216.679 285.473,213.345 290.5,210.5 Z"/></g>
<g><path style="opacity:1" fill="#0e61c0" d="M 344.5,207.5 C 345.833,207.5 347.167,207.5 348.5,207.5C 348.192,209.924 348.526,212.257 349.5,214.5C 350.107,214.376 350.44,214.043 350.5,213.5C 351.167,213.833 351.833,214.167 352.5,214.5C 355.568,216.151 357.902,215.485 359.5,212.5C 360.29,211.391 360.79,210.058 361,208.5C 362.352,210.594 362.852,212.927 362.5,215.5C 362.5,215.833 362.5,216.167 362.5,216.5C 357.753,221.738 352.92,221.738 348,216.5C 347.58,213.1 346.413,210.1 344.5,207.5 Z"/></g>
<g><path style="opacity:0.007" fill="#040410" d="M 358.5,209.5 C 359.404,210.209 359.737,211.209 359.5,212.5C 357.902,215.485 355.568,216.151 352.5,214.5C 352.5,214.167 352.5,213.833 352.5,213.5C 354.885,212.708 356.885,211.374 358.5,209.5 Z"/></g>
<g><path style="opacity:0.004" fill="#000000" d="M 362.5,216.5 C 363.833,217.167 363.833,217.167 362.5,216.5 Z"/></g>
<g><path style="opacity:0.004" fill="#000000" d="M 571.5,216.5 C 572.833,217.167 572.833,217.167 571.5,216.5 Z"/></g>
<g><path style="opacity:0.004" fill="#000000" d="M 142.5,217.5 C 143.833,218.167 143.833,218.167 142.5,217.5 Z"/></g>
<g><path style="opacity:0.004" fill="#0d1631" d="M 273.5,221.5 C 273.179,223.048 272.179,223.715 270.5,223.5C 268.393,222.532 266.059,222.198 263.5,222.5C 264.261,221.609 265.261,220.942 266.5,220.5C 268.747,221.374 271.08,221.708 273.5,221.5 Z"/></g>
<g><path style="opacity:0.118" fill="#061b4d" d="M 320.5,212.5 C 320.468,217.391 319.801,222.057 318.5,226.5C 318.5,224.167 318.5,221.833 318.5,219.5C 319.065,217.048 319.732,214.715 320.5,212.5 Z"/></g>
<g><path style="opacity:0.004" fill="#000000" d="M 619.5,221.5 C 620.833,222.167 620.833,222.167 619.5,221.5 Z"/></g>
<g><path style="opacity:1" fill="#116ed0" d="M 263.5,222.5 C 266.059,222.198 268.393,222.532 270.5,223.5C 267.757,224.326 265.257,225.659 263,227.5C 262.22,229.387 262.387,231.054 263.5,232.5C 264.167,232.833 264.833,233.167 265.5,233.5C 267.369,234.165 269.369,234.831 271.5,235.5C 271.137,236.183 270.804,236.85 270.5,237.5C 268.167,238.833 265.833,238.833 263.5,237.5C 260.506,233.212 259.84,228.545 261.5,223.5C 261.842,222.662 262.508,222.328 263.5,222.5 Z"/></g>
<g><path style="opacity:1" fill="#0e54a7" d="M 276.5,220.5 C 277.919,221.451 279.585,221.784 281.5,221.5C 280.024,223.5 278.191,225.167 276,226.5C 275.28,228.112 275.446,229.612 276.5,231C 275.502,234.214 273.502,236.381 270.5,237.5C 270.804,236.85 271.137,236.183 271.5,235.5C 269.369,234.831 267.369,234.165 265.5,233.5C 267.099,233.768 268.432,233.434 269.5,232.5C 269.739,230.533 269.406,228.699 268.5,227C 266.072,226.253 264.406,227.086 263.5,229.5C 263.5,230.5 263.5,231.5 263.5,232.5C 262.387,231.054 262.22,229.387 263,227.5C 265.257,225.659 267.757,224.326 270.5,223.5C 272.179,223.715 273.179,223.048 273.5,221.5C 274.391,220.89 275.391,220.557 276.5,220.5 Z M 269.5,232.5 C 267.534,231.454 265.534,230.454 263.5,229.5C 264.406,227.086 266.072,226.253 268.5,227C 269.406,228.699 269.739,230.533 269.5,232.5 Z"/></g>
<g><path style="opacity:1" fill="#1053a0" d="M 317.5,205.5 C 316.526,211.472 316.359,217.472 317,223.5C 317.21,221.942 317.71,220.609 318.5,219.5C 318.5,221.833 318.5,224.167 318.5,226.5C 318.371,228.216 318.038,229.883 317.5,231.5C 317.167,231.5 316.833,231.5 316.5,231.5C 316.326,223.527 315.826,223.527 315,231.5C 314.578,233.426 313.411,234.426 311.5,234.5C 312.999,232.742 313.332,230.909 312.5,229C 313.724,220.973 315.391,213.14 317.5,205.5 Z"/></g>
<g><path style="opacity:1" fill="#0e4786" d="M 261.5,223.5 C 259.84,228.545 260.506,233.212 263.5,237.5C 256.407,233.787 255.74,229.121 261.5,223.5 Z"/></g>
<g><path style="opacity:0.005" fill="#000000" d="M 263.5,229.5 C 265.534,230.454 267.534,231.454 269.5,232.5C 268.432,233.434 267.099,233.768 265.5,233.5C 264.833,233.167 264.167,232.833 263.5,232.5C 263.5,231.5 263.5,230.5 263.5,229.5 Z"/></g>
<g><path style="opacity:1" fill="#106ed2" d="M 316.5,231.5 C 315.85,233.435 315.517,235.435 315.5,237.5C 313.302,237.12 311.635,237.787 310.5,239.5C 309.833,239.5 309.5,239.833 309.5,240.5C 307.797,244.088 306.797,243.422 306.5,238.5C 307.129,236.003 308.796,234.67 311.5,234.5C 313.411,234.426 314.578,233.426 315,231.5C 315.826,223.527 316.326,223.527 316.5,231.5 Z"/></g>
<g><path style="opacity:1" fill="#0e4f9d" d="M 316.5,231.5 C 316.833,231.5 317.167,231.5 317.5,231.5C 317.351,232.552 317.517,233.552 318,234.5C 322.735,238.254 323.568,242.587 320.5,247.5C 320.665,244.482 320.498,241.482 320,238.5C 319.163,236.993 317.996,236.493 316.5,237C 317.337,238.011 317.67,239.178 317.5,240.5C 315.465,238.27 313.132,237.937 310.5,239.5C 311.635,237.787 313.302,237.12 315.5,237.5C 315.517,235.435 315.85,233.435 316.5,231.5 Z"/></g>
<g><path style="opacity:0.004" fill="#000000" d="M 345.5,236.5 C 346.833,237.167 346.833,237.167 345.5,236.5 Z"/></g>
<g><path style="opacity:1" fill="#1265c4" d="M 320.5,247.5 C 315.422,251.764 310.588,251.431 306,246.5C 305.199,243.633 305.366,240.966 306.5,238.5C 306.797,243.422 307.797,244.088 309.5,240.5C 309.329,245.494 311.662,247.328 316.5,246C 317.056,245.617 317.389,245.117 317.5,244.5C 316.167,243.167 316.167,241.833 317.5,240.5C 317.67,239.178 317.337,238.011 316.5,237C 317.996,236.493 319.163,236.993 320,238.5C 320.498,241.482 320.665,244.482 320.5,247.5 Z M 317.5,240.5 C 316.167,241.833 316.167,243.167 317.5,244.5C 315.604,244.92 313.771,244.92 312,244.5C 310.731,243.095 310.231,241.429 310.5,239.5C 313.132,237.937 315.465,238.27 317.5,240.5 Z"/></g>
<g><path style="opacity:0.005" fill="#0d102a" d="M 310.5,239.5 C 310.231,241.429 310.731,243.095 312,244.5C 313.771,244.92 315.604,244.92 317.5,244.5C 317.389,245.117 317.056,245.617 316.5,246C 311.662,247.328 309.329,245.494 309.5,240.5C 309.5,239.833 309.833,239.5 310.5,239.5 Z"/></g>
<g><path style="opacity:0.004" fill="#000000" d="M 571.5,244.5 C 572.833,245.167 572.833,245.167 571.5,244.5 Z"/></g>
<g><path style="opacity:0.004" fill="#000000" d="M 34.5,251.5 C 35.8333,252.167 35.8333,252.167 34.5,251.5 Z"/></g>
<g><path style="opacity:0.004" fill="#000000" d="M 595.5,260.5 C 596.833,261.167 596.833,261.167 595.5,260.5 Z"/></g>
<g><path style="opacity:0.004" fill="#000000" d="M 105.5,263.5 C 106.833,264.167 106.833,264.167 105.5,263.5 Z"/></g>
<g><path style="opacity:0.004" fill="#000000" d="M 201.5,267.5 C 202.833,268.167 202.833,268.167 201.5,267.5 Z"/></g>
<g><path style="opacity:0.004" fill="#000000" d="M 8.5,269.5 C 9.83333,270.167 9.83333,270.167 8.5,269.5 Z"/></g>
<g><path style="opacity:0.004" fill="#000000" d="M 405.5,280.5 C 406.833,281.167 406.833,281.167 405.5,280.5 Z"/></g>
<g><path style="opacity:0.004" fill="#000000" d="M 572.5,285.5 C 573.833,286.167 573.833,286.167 572.5,285.5 Z"/></g>
<g><path style="opacity:0.004" fill="#000000" d="M 247.5,292.5 C 248.833,293.167 248.833,293.167 247.5,292.5 Z"/></g>
<g><path style="opacity:0.004" fill="#000000" d="M 225.5,302.5 C 226.833,303.167 226.833,303.167 225.5,302.5 Z"/></g>
<g><path style="opacity:0.004" fill="#000000" d="M 168.5,304.5 C 169.833,305.167 169.833,305.167 168.5,304.5 Z"/></g>
<g><path style="opacity:0.004" fill="#0000ff" d="M 275.5,312.5 C 276.833,313.167 276.833,313.167 275.5,312.5 Z"/></g>
<g><path style="opacity:0.004" fill="#000000" d="M 57.5,328.5 C 58.8333,329.167 58.8333,329.167 57.5,328.5 Z"/></g>
<g><path style="opacity:0.004" fill="#000000" d="M 461.5,329.5 C 462.833,330.167 462.833,330.167 461.5,329.5 Z"/></g>
<g><path style="opacity:0.004" fill="#000000" d="M 194.5,332.5 C 195.833,333.167 195.833,333.167 194.5,332.5 Z"/></g>
<g><path style="opacity:0.004" fill="#000000" d="M 576.5,332.5 C 577.833,333.167 577.833,333.167 576.5,332.5 Z"/></g>
<g><path style="opacity:0.004" fill="#000000" d="M 59.5,335.5 C 60.8333,336.167 60.8333,336.167 59.5,335.5 Z"/></g>
<g><path style="opacity:0.004" fill="#000000" d="M 489.5,339.5 C 490.833,340.167 490.833,340.167 489.5,339.5 Z"/></g>
<g><path style="opacity:0.004" fill="#000000" d="M 123.5,343.5 C 124.833,344.167 124.833,344.167 123.5,343.5 Z"/></g>
<g><path style="opacity:0.004" fill="#000000" d="M 617.5,343.5 C 618.833,344.167 618.833,344.167 617.5,343.5 Z"/></g>
<g><path style="opacity:0.004" fill="#000000" d="M 206.5,347.5 C 207.833,348.167 207.833,348.167 206.5,347.5 Z"/></g>
<g><path style="opacity:0.004" fill="#000000" d="M 193.5,349.5 C 194.833,350.167 194.833,350.167 193.5,349.5 Z"/></g>
<g><path style="opacity:0.004" fill="#000000" d="M 275.5,354.5 C 276.833,355.167 276.833,355.167 275.5,354.5 Z"/></g>
<g><path style="opacity:0.004" fill="#000000" d="M 8.5,360.5 C 9.83333,361.167 9.83333,361.167 8.5,360.5 Z"/></g>
<g><path style="opacity:0.004" fill="#000000" d="M 388.5,362.5 C 389.833,363.167 389.833,363.167 388.5,362.5 Z"/></g>
<g><path style="opacity:0.004" fill="#000000" d="M 281.5,363.5 C 282.833,364.167 282.833,364.167 281.5,363.5 Z"/></g>
<g><path style="opacity:0.004" fill="#000000" d="M 404.5,364.5 C 405.833,365.167 405.833,365.167 404.5,364.5 Z"/></g>
<g><path style="opacity:0.004" fill="#000000" d="M 284.5,367.5 C 285.833,368.167 285.833,368.167 284.5,367.5 Z"/></g>
<g><path style="opacity:0.004" fill="#000000" d="M 312.5,375.5 C 313.833,376.167 313.833,376.167 312.5,375.5 Z"/></g>
<g><path style="opacity:0.004" fill="#000000" d="M 393.5,394.5 C 392.833,393.167 392.833,393.167 393.5,394.5 Z"/></g>
</svg>
